<svg preserveAspectRatio="none" overflow="visible" style="display: block;" width="22" height="22" viewBox="0 0 22 22" fill="none" xmlns="http://www.w3.org/2000/svg">
<g id="Icon/analytics">
<path id="Vector" d="M6.50833 15.6521H7.88333V10.9542H6.50833V15.6521ZM14.1167 15.6521H15.4917V6.02708H14.1167V15.6521ZM10.3125 15.6521H11.6875V12.9479H10.3125V15.6521ZM10.3125 10.9542H11.6875V9.57917H10.3125V10.9542ZM4.125 19.25C3.75833 19.25 3.4375 19.1125 3.1625 18.8375C2.8875 18.5625 2.75 18.2417 2.75 17.875V4.125C2.75 3.75833 2.8875 3.4375 3.1625 3.1625C3.4375 2.8875 3.75833 2.75 4.125 2.75H17.875C18.2417 2.75 18.5625 2.8875 18.8375 3.1625C19.1125 3.4375 19.25 3.75833 19.25 4.125V17.875C19.25 18.2417 19.1125 18.5625 18.8375 18.8375C18.5625 19.1125 18.2417 19.25 17.875 19.25H4.125ZM4.125 17.875H17.875V4.125H4.125V17.875Z" fill="#2E86C1"/>
</g>
</svg>
